<svg viewBox="0 0 64 64" xml:space="preserve" xmlns="http://www.w3.org/2000/svg" shape-rendering="geometricPrecision" text-rendering="geometricPrecision" image-rendering="optimizeQuality" fill-rule="evenodd" clip-rule="evenodd"><path d="M10.37 44.76zm-.97-.28zm-1.09-.5zm-3.3-3.3zm-.62-1.47zm7.68-10.64c.1-1.49.42-2.93.91-4.28-.49 1.35-.8 2.79-.9 4.28h-.01zm19.25-13.82a7.823 7.823 0 0 1 14.26 3.29c.48-.06.96-.09 1.45-.09 6.05 0 10.95 4.9 10.95 10.95 0 1.76-.42 3.43-1.16 4.91-.82-.44-1.76-.68-2.76-.68a10.48 10.48 0 0 0-12.28-8.96 15.41 15.41 0 0 0-10.46-9.42z" fill="#0e6096" class="fill-0e6096"></path><path d="M12.22 44.97c-4.53 0-8.2-3.67-8.2-8.2 0-4.48 3.59-8.12 8.06-8.2.53-8 7.19-14.33 15.32-14.33 6.57 0 12.18 4.13 14.37 9.93a10.8 10.8 0 0 1 1.89-.17c5.33 0 9.74 3.98 10.4 9.13a5.922 5.922 0 0 1 .15 11.84c-14 .2-27.99 0-41.99 0z" fill="#1ab5ed" class="fill-1ab5ed"></path><path d="M16.67 45.99a1.25 1.25 0 0 1 0-2.5h3.72l-2.63-2.63a1.25 1.25 0 0 1 0-1.77 1.25 1.25 0 0 1 1.77 0l2.63 2.63V38a1.25 1.25 0 0 1 2.5 0v3.72l2.63-2.63a1.25 1.25 0 0 1 1.77 0c.48.49.48 1.28 0 1.77l-2.63 2.63h3.72a1.25 1.25 0 0 1 0 2.5h-3.72l2.63 2.63c.48.49.48 1.28 0 1.77-.49.48-1.28.48-1.77 0l-2.63-2.64v3.73a1.25 1.25 0 0 1-2.5 0v-3.73l-2.63 2.64c-.49.48-1.28.48-1.77 0a1.25 1.25 0 0 1 0-1.77l2.63-2.63h-3.72zm28.23-6.9a1.25 1.25 0 0 1 1.77 0c.49.49.49 1.28 0 1.77l-2.63 2.63h3.72a1.25 1.25 0 0 1 0 2.5h-3.72l2.63 2.63c.49.49.49 1.28 0 1.77-.49.48-1.28.48-1.77 0l-2.63-2.64v3.73a1.25 1.25 0 0 1-2.5 0v-3.73l-2.63 2.64c-.49.48-1.28.48-1.77 0-.48-.49-.48-1.28 0-1.77l2.64-2.63h-3.73a1.25 1.25 0 0 1 0-2.5h3.73l-2.64-2.63c-.48-.49-.48-1.28 0-1.77a1.25 1.25 0 0 1 1.77 0l2.63 2.63V38a1.25 1.25 0 0 1 2.5 0v3.72l2.63-2.63z" fill="#d6d6d6" fill-rule="nonzero" class="fill-ffc106"></path></svg>